# Blender 4.0.1
# www.blender.org
o Circle
v 0.000000 1.000000 0.000000
v -0.195090 0.980785 0.000000
v -0.382683 0.923880 0.000000
v -0.555570 0.831470 0.000000
v -0.707107 0.707107 0.000000
v -0.831470 0.555570 0.000000
v -0.923880 0.382683 0.000000
v -0.980785 0.195090 0.000000
v -1.000000 0.000000 0.000000
v -0.980785 -0.195090 -0.000000
v -0.923880 -0.382683 -0.000000
v -0.831470 -0.555570 -0.000000
v -0.707107 -0.707107 -0.000000
v -0.555570 -0.831470 -0.000000
v -0.382683 -0.923880 -0.000000
v -0.195090 -0.980785 -0.000000
v 0.000000 -1.000000 -0.000000
v 0.195090 -0.980785 -0.000000
v 0.382683 -0.923880 -0.000000
v 0.555570 -0.831470 -0.000000
v 0.707107 -0.707107 -0.000000
v 0.831470 -0.555570 -0.000000
v 0.923880 -0.382683 -0.000000
v 0.980785 -0.195090 -0.000000
v 1.000000 0.000000 0.000000
v 0.980785 0.195090 0.000000
v 0.923880 0.382683 0.000000
v 0.831470 0.555570 0.000000
v 0.707107 0.707107 0.000000
v 0.555570 0.831470 0.000000
v 0.382683 0.923880 0.000000
v 0.195090 0.980785 0.000000
vn -0.0000 -0.0000 1.0000
vt 0.000000 0.000000
s 0
f 2/1/1 3/1/1 4/1/1 5/1/1 6/1/1 7/1/1 8/1/1 9/1/1 10/1/1 11/1/1 12/1/1 13/1/1 14/1/1 15/1/1 16/1/1 17/1/1 18/1/1 19/1/1 20/1/1 21/1/1 22/1/1 23/1/1 24/1/1 25/1/1 26/1/1 27/1/1 28/1/1 29/1/1 30/1/1 31/1/1 32/1/1 1/1/1
o Circle.001
v 0.000000 1.000000 -0.000000
v 0.000000 0.980785 0.195090
v 0.000000 0.923880 0.382683
v 0.000000 0.831470 0.555570
v 0.000000 0.707107 0.707107
v 0.000000 0.555570 0.831470
v 0.000000 0.382683 0.923880
v 0.000000 0.195090 0.980785
v 0.000000 0.000000 1.000000
v 0.000000 -0.195090 0.980785
v 0.000000 -0.382683 0.923880
v 0.000000 -0.555570 0.831470
v 0.000000 -0.707107 0.707107
v -0.000000 -0.831470 0.555570
v -0.000000 -0.923880 0.382683
v -0.000000 -0.980785 0.195090
v -0.000000 -1.000000 0.000000
v -0.000000 -0.980785 -0.195090
v -0.000000 -0.923880 -0.382683
v -0.000000 -0.831470 -0.555570
v -0.000000 -0.707107 -0.707107
v -0.000000 -0.555570 -0.831470
v -0.000000 -0.382683 -0.923880
v -0.000000 -0.195090 -0.980785
v -0.000000 0.000000 -1.000000
v -0.000000 0.195090 -0.980785
v -0.000000 0.382683 -0.923880
v -0.000000 0.555570 -0.831470
v 0.000000 0.707107 -0.707107
v 0.000000 0.831470 -0.555570
v 0.000000 0.923880 -0.382683
v 0.000000 0.980785 -0.195090
vn 1.0000 -0.0000 -0.0000
vt 0.000000 0.000000
s 0
f 34/2/2 35/2/2 36/2/2 37/2/2 38/2/2 39/2/2 40/2/2 41/2/2 42/2/2 43/2/2 44/2/2 45/2/2 46/2/2 47/2/2 48/2/2 49/2/2 50/2/2 51/2/2 52/2/2 53/2/2 54/2/2 55/2/2 56/2/2 57/2/2 58/2/2 59/2/2 60/2/2 61/2/2 62/2/2 63/2/2 64/2/2 33/2/2
